<svg version="1.1" id="Layer_1" xmlns="http://www.w3.org/2000/svg" xmlns:xlink="http://www.w3.org/1999/xlink" x="0px" y="0px" width="100%" viewBox="0 0 1783 513" enable-background="new 0 0 1783 513" xml:space="preserve">

<path fill="#329F9F" opacity="1.000000" stroke="none" d="
M304.931885,349.032837 
	C308.932129,357.276733 312.770447,365.185364 317.032379,373.966888 
	C314.068665,374.227814 312.019287,374.557068 309.968445,374.566803 
	C271.149139,374.751465 232.329697,374.898529 193.510269,375.052765 
	C192.177292,375.058044 190.834244,375.162292 189.513229,375.037262 
	C186.090927,374.713318 184.678925,376.102539 184.827942,379.615540 
	C185.030487,384.390564 184.878403,389.180603 184.878403,393.964172 
	C184.414444,394.147369 183.950485,394.330536 183.486542,394.513702 
	C170.678070,374.013214 157.869583,353.512695 145.061111,333.012177 
	C145.395050,332.641846 145.728973,332.271484 146.062912,331.901154 
	C151.681229,334.630524 157.238205,337.498596 162.947250,340.022736 
	C165.315308,341.069702 168.005692,341.931183 170.554031,341.943542 
	C198.876251,342.081055 227.199356,342.039337 255.522232,342.026611 
	C256.821625,342.026031 258.120941,341.840668 260.593109,341.651672 
	C247.447708,314.683441 234.592957,288.311462 221.205002,260.845551 
	C219.699966,263.117432 218.721924,264.487152 217.852142,265.922424 
	C200.009003,295.366486 174.319199,312.450348 139.782974,315.940582 
	C133.546158,316.570862 129.320465,315.234283 125.639809,309.638611 
	C118.505821,298.792908 110.496559,288.523438 102.871277,277.999786 
	C101.938858,276.712952 101.137123,275.331421 100.486359,273.539917 
	C118.746666,282.450195 137.243607,284.102295 156.102386,276.464020 
	C168.331345,271.510986 178.119461,263.465851 185.253464,252.291000 
	C200.041824,229.126205 198.631439,199.856705 181.257187,178.015564 
	C171.681259,165.977646 159.057968,158.455963 143.880508,155.686768 
	C128.815384,152.938095 114.395264,155.151657 100.166519,162.062271 
	C100.824364,160.902863 101.378593,159.668365 102.155952,158.595551 
	C110.660873,146.858093 119.281738,135.203461 127.672920,123.385612 
	C129.726166,120.493874 131.819077,119.375031 135.507248,119.565460 
	C168.351471,121.261299 194.427475,135.454742 212.934372,162.458969 
	C220.022781,172.801971 225.378357,184.395905 230.953156,195.701080 
	C248.342911,230.965927 265.524445,266.334015 282.653198,301.726715 
	C290.191650,317.303253 297.407562,333.035889 304.931885,349.032837 
z" data-index="1"></path>
<path fill="#0C5E77" opacity="1.000000" stroke="none" d="
M316.610657,235.369965 
	C319.791290,241.897110 322.803650,248.090363 326.315582,255.310715 
	C328.220428,252.403397 329.428680,250.679916 330.515198,248.882843 
	C347.400177,220.955704 372.196503,205.518158 404.371307,200.675415 
	C413.958618,199.232407 419.351624,202.080948 424.260681,209.969849 
	C430.315338,219.699738 437.641052,228.637756 444.391571,237.936768 
	C445.309082,239.200638 446.076508,240.573425 447.589478,242.964035 
	C412.791534,228.035553 383.797577,233.673172 362.362213,264.019165 
	C347.139526,285.569794 348.787659,314.941132 363.949249,335.353455 
	C373.478668,348.183136 385.993591,356.377808 401.489471,360.158234 
	C417.097290,363.965881 431.786438,360.704834 447.336700,353.652435 
	C446.037445,356.013916 445.503571,357.279755 444.719177,358.364441 
	C436.521393,369.700714 428.181274,380.935883 420.114502,392.364166 
	C417.452820,396.134949 414.417084,396.930328 409.911133,396.610779 
	C389.527039,395.165192 371.128540,388.547577 355.103088,375.952972 
	C340.567719,364.529419 330.324615,349.815918 322.484222,333.037262 
	C309.789490,305.870148 296.303131,279.072968 283.152252,252.119003 
	C276.576782,238.641922 269.927551,225.200165 263.447510,211.677338 
	C253.448822,190.811691 243.558640,169.893997 233.648727,148.985916 
	C232.738541,147.065582 232.018021,145.055344 230.905838,142.347839 
	C239.447159,141.914749 247.319565,141.203445 255.194839,141.170441 
	C288.689911,141.030060 322.185822,141.092728 355.681427,141.076141 
	C362.876343,141.072571 362.853058,141.062622 362.903992,133.911804 
	C362.928833,130.421188 363.046997,126.930901 363.169861,123.442116 
	C363.177673,123.220932 363.592529,123.014107 364.354401,122.292786 
	C376.978729,142.489059 389.524994,162.560516 402.071289,182.631958 
	C401.802277,182.997391 401.533264,183.362808 401.264252,183.728226 
	C398.664124,182.668518 395.866943,181.932541 393.499115,180.491211 
	C384.787323,175.188141 375.660797,174.140182 365.408539,174.465408 
	C341.788879,175.214691 318.116821,174.310471 294.465973,174.081833 
	C292.506195,174.062881 290.546082,174.079330 286.728943,174.079330 
	C297.033203,195.218430 306.737762,215.127258 316.610657,235.369965 
z" data-index="2"></path>
<path fill="#329F9F" opacity="1.000000" stroke="none" d="
M132.155396,64.684601 
	C95.757767,68.093597 69.540382,100.218201 74.363686,135.734589 
	C77.312866,157.450806 88.754791,173.895157 108.447586,183.872284 
	C128.074661,193.816162 147.903564,192.376358 167.810654,182.665939 
	C167.589615,183.985992 167.658401,184.546143 167.416153,184.881882 
	C158.060028,197.849045 148.793091,210.884857 139.136261,223.625015 
	C138.010254,225.110550 134.654861,225.623260 132.422897,225.447250 
	C90.473991,222.139282 60.467510,201.425705 44.867393,162.274689 
	C19.887758,99.584259 65.886200,30.139622 133.351456,29.193134 
	C173.364120,28.631784 209.086823,48.241100 227.389297,89.146492 
	C228.038910,90.598366 228.284760,92.969223 227.539352,94.193916 
	C219.139160,107.995163 210.511612,121.658104 201.916702,135.340317 
	C201.704453,135.678192 201.166443,135.811462 200.057632,136.468277 
	C202.276978,113.004028 194.992371,93.562592 177.267487,78.744133 
	C164.468002,68.043434 149.338181,63.566223 132.155396,64.684601 
z" data-index="3"></path>
<path fill="#0C5E77" opacity="1.000000" stroke="none" d="
M478.297363,460.303101 
	C456.636322,480.097382 431.817719,489.139160 402.586609,486.397736 
	C379.419250,484.224976 359.563263,475.260406 342.593506,459.738342 
	C332.520325,450.524536 325.081207,439.288147 319.910278,426.631500 
	C319.408203,425.402618 319.239319,423.464355 319.866455,422.433990 
	C328.241913,408.673004 336.786987,395.015259 346.056366,381.216858 
	C346.312958,412.888611 358.889343,436.430695 389.090027,448.105988 
	C405.442169,454.427582 421.856842,452.738342 437.655060,445.629852 
	C465.974670,432.887360 483.526184,395.783844 467.739624,361.765259 
	C454.342560,332.895782 417.765442,314.436340 379.115265,333.761505 
	C379.971191,332.076630 380.375458,330.931305 381.058960,329.988464 
	C389.657410,318.127991 398.368805,306.348419 406.868011,294.417633 
	C408.737701,291.793060 410.805817,290.911743 413.954590,290.933807 
	C457.796265,291.241211 498.484650,325.237427 506.883209,368.886261 
	C513.693481,404.280853 504.344391,434.746094 478.297363,460.303101 
z" data-index="4"></path>
<path fill="#D3D3D3" opacity="1.000000" stroke="none" d="
M1330.142334,269.999939 
	C1330.141113,247.015594 1330.265015,224.529984 1330.035522,202.047974 
	C1329.988037,197.411133 1331.180542,196.340302 1335.954102,195.686905 
	C1347.240112,194.142090 1353.667114,198.687988 1359.499268,208.135452 
	C1370.247070,225.546005 1382.427368,242.072678 1394.030396,258.954102 
	C1395.024658,260.400665 1396.166748,261.745636 1398.514160,262.867004 
	C1398.514160,240.781296 1398.514160,218.695557 1398.514160,196.279831 
	C1406.807007,196.279831 1414.211060,196.279831 1421.924316,196.279831 
	C1421.924316,232.723923 1421.924316,268.947144 1421.924316,305.807556 
	C1415.586182,305.807556 1409.462036,306.059174 1403.386230,305.628082 
	C1401.893921,305.522247 1400.269653,303.389771 1399.196533,301.847656 
	C1385.689453,282.436005 1372.275513,262.959564 1358.827393,243.506882 
	C1357.655029,241.811035 1356.409302,240.165924 1354.030884,238.892380 
	C1353.951172,240.615845 1353.803467,242.339264 1353.802002,244.062805 
	C1353.785400,263.049561 1353.708130,282.037048 1353.864868,301.022491 
	C1353.894531,304.618958 1353.076782,306.194763 1349.178955,305.935120 
	C1344.536133,305.625763 1339.844116,305.646484 1335.197632,305.926666 
	C1331.382812,306.156708 1329.914795,305.116486 1330.039307,300.975281 
	C1330.344360,290.825012 1330.141113,280.659393 1330.142334,269.999939 
z" data-index="5" style="opacity: 1;"></path>
<path fill="#D4D4D3" opacity="1.000000" stroke="none" d="
M654.850830,303.264282 
	C654.835327,267.386932 654.835327,231.951462 654.835327,195.941681 
	C661.014648,195.941681 666.645569,195.866135 672.273804,195.957413 
	C683.915710,196.146225 695.650635,195.579208 707.174622,196.867630 
	C723.479370,198.690552 734.093872,208.571014 736.858765,222.945206 
	C739.828552,238.385315 736.072144,254.273834 720.524536,262.310608 
	C720.097717,262.531250 719.770935,262.945404 718.779114,263.805786 
	C726.151672,277.333954 733.590271,290.983276 741.697083,305.858673 
	C735.985046,305.858673 731.058655,305.328491 726.293091,305.978241 
	C718.398743,307.054535 713.894470,304.202820 710.707153,296.806305 
	C706.898621,287.967773 701.606995,279.779541 697.305176,271.136688 
	C695.639465,267.790192 693.562866,266.744232 689.933655,266.800446 
	C678.401611,266.979095 678.399353,266.837067 678.399475,278.300262 
	C678.399536,287.256744 678.399536,296.213196 678.399536,305.753967 
	C670.794861,305.753967 663.697510,305.802551 656.603699,305.665253 
	C656.012146,305.653809 655.444824,304.388763 654.850830,303.264282 
M687.562805,215.053665 
	C684.653259,215.053665 681.743713,215.053665 678.698853,215.053665 
	C678.698853,226.444397 678.698853,236.977539 678.698853,247.659500 
	C686.298706,247.659500 693.631714,248.331619 700.785217,247.486023 
	C709.349304,246.473709 713.643188,240.525055 713.614746,231.833588 
	C713.585571,222.920532 709.101074,217.261795 700.422058,215.819916 
	C696.523926,215.172287 692.499268,215.285629 687.562805,215.053665 
z" data-index="6" style="opacity: 1;"></path>
<path fill="#D4D4D3" opacity="1.000000" stroke="none" d="
M1546.917969,302.356873 
	C1546.915894,266.811829 1546.915894,231.708847 1546.915894,196.897659 
	C1547.739868,196.446304 1548.030151,196.147018 1548.317261,196.150024 
	C1565.447876,196.330231 1582.653564,195.614319 1599.686646,197.006485 
	C1615.563843,198.304184 1626.028076,208.706757 1628.975586,222.867615 
	C1632.519287,239.893066 1627.180542,253.053284 1613.110962,262.022339 
	C1612.434692,262.453522 1611.845459,263.021454 1610.866821,263.805176 
	C1618.362305,277.554535 1625.810181,291.216400 1633.765625,305.809418 
	C1625.002075,305.809418 1617.247192,305.974213 1609.513550,305.644470 
	C1608.249268,305.590546 1606.719482,303.552002 1605.921509,302.096741 
	C1600.317017,291.876099 1594.737671,281.636230 1589.455322,271.247498 
	C1587.792847,267.977997 1585.838989,266.738281 1582.144287,266.795502 
	C1570.520020,266.975586 1570.532837,266.822784 1570.512817,278.706573 
	C1570.498535,287.196991 1570.440552,295.687378 1570.380493,304.177612 
	C1570.378296,304.479919 1570.146362,304.780518 1569.711914,305.828949 
	C1563.114014,305.828949 1556.189209,305.929260 1549.275757,305.695496 
	C1548.458862,305.667847 1547.703857,303.808960 1546.917969,302.356873 
M1572.955688,248.073120 
	C1579.098389,248.011276 1585.270020,248.301987 1591.376953,247.802307 
	C1599.845947,247.109344 1604.593384,242.302383 1605.563965,234.348450 
	C1606.602661,225.836945 1603.237549,218.471466 1595.861572,216.879944 
	C1587.794922,215.139420 1579.340698,215.195419 1570.494141,214.419159 
	C1570.494141,225.837753 1570.460327,235.770889 1570.561035,245.702682 
	C1570.568726,246.461899 1571.527954,247.211456 1572.955688,248.073120 
z" data-index="7" style="opacity: 1;"></path>
<path fill="#D3D4D3" opacity="1.000000" stroke="none" d="
M1017.995361,305.861938 
	C1006.681885,305.861938 995.867249,305.861938 984.603271,305.861938 
	C984.603271,269.316925 984.603271,233.108978 984.603271,196.789429 
	C984.728516,196.675583 984.970032,196.264435 985.209656,196.265518 
	C1001.012512,196.338303 1016.958923,195.132065 1032.585815,196.842041 
	C1058.795166,199.709976 1073.860474,216.149506 1076.671753,242.519104 
	C1077.940552,254.421219 1077.082397,266.225189 1072.074463,277.309082 
	C1063.532349,296.214996 1047.921143,304.430969 1027.988892,305.783844 
	C1024.836670,305.997772 1021.659790,305.845093 1017.995361,305.861938 
M1053.605225,248.819763 
	C1053.355103,246.004593 1053.278687,243.161163 1052.825806,240.379013 
	C1050.496704,226.068497 1043.062988,218.580261 1028.680908,216.588364 
	C1023.442017,215.862808 1018.051758,216.303802 1012.762695,215.843781 
	C1008.741882,215.494064 1007.694275,216.957306 1007.730164,220.881180 
	C1007.914124,241.011536 1007.807373,261.144470 1007.832764,281.276489 
	C1007.834534,282.692200 1008.083740,284.107574 1008.249023,285.851532 
	C1013.839172,285.851532 1018.971130,285.911774 1024.100586,285.821136 
	C1026.082275,285.786133 1028.077881,285.519836 1030.033203,285.169830 
	C1042.767212,282.890411 1049.829956,276.232880 1052.348267,263.565247 
	C1053.248901,259.035034 1053.216919,254.319366 1053.605225,248.819763 
z" data-index="8" style="opacity: 1;"></path>
<path fill="#D2D3D2" opacity="1.000000" stroke="none" d="
M1215.444336,221.213425 
	C1215.722046,223.386398 1215.913086,225.178238 1216.193115,227.804901 
	C1209.002075,227.804901 1202.250122,227.877579 1195.504150,227.707199 
	C1194.716187,227.687286 1193.509888,226.451599 1193.262695,225.565994 
	C1190.858887,216.950684 1184.180298,214.292847 1176.423828,214.263000 
	C1171.936646,214.245728 1166.987061,215.150894 1163.049072,217.191437 
	C1155.592896,221.054947 1155.445190,231.008545 1162.812378,235.003830 
	C1167.978760,237.805603 1174.027100,238.970657 1179.664551,240.916489 
	C1187.341919,243.566467 1195.396729,245.486679 1202.577026,249.126083 
	C1212.939941,254.378708 1217.889038,263.640045 1217.603516,275.374268 
	C1217.315063,287.230713 1212.009155,296.496094 1201.390381,301.593964 
	C1183.529297,310.168610 1165.181274,310.102448 1147.468750,301.186829 
	C1135.883423,295.355225 1131.013062,284.912964 1130.597290,271.346985 
	C1137.821289,271.346985 1144.575562,271.274078 1151.323608,271.446808 
	C1152.095825,271.466583 1153.158569,272.725281 1153.536255,273.637512 
	C1158.255859,285.032074 1166.802734,289.827545 1179.293945,287.428131 
	C1182.784180,286.757721 1186.459717,285.394928 1189.298218,283.320526 
	C1196.122192,278.333557 1195.405884,269.099670 1187.791138,265.345398 
	C1182.775513,262.872528 1177.140747,261.645416 1171.766602,259.912109 
	C1164.494385,257.566711 1156.906128,255.939499 1149.979614,252.831635 
	C1126.636108,242.357544 1130.571899,214.846405 1144.883789,203.834381 
	C1159.990479,192.210892 1187.238403,191.151962 1202.805420,202.224274 
	C1209.310181,206.850937 1213.638794,212.966705 1215.444336,221.213425 
z" data-index="9" style="opacity: 1;"></path>
<path fill="#D5D5D4" opacity="1.000000" stroke="none" d="
M895.353271,199.497025 
	C895.357727,221.615799 895.372742,243.277740 895.354797,264.939667 
	C895.347534,273.695282 898.683411,280.653625 906.764954,284.452942 
	C915.196411,288.416779 923.684753,287.998627 931.415833,282.519104 
	C937.483765,278.218445 939.562195,271.868896 939.544495,264.614105 
	C939.493835,243.785431 939.527710,222.956573 939.528381,202.127792 
	C939.528442,200.321884 939.528320,198.515976 939.528320,196.335632 
	C947.408875,196.335632 954.809570,196.335632 962.851807,196.335632 
	C962.938782,197.986450 963.109436,199.733902 963.111023,201.481537 
	C963.129761,221.977036 962.507935,242.495361 963.266785,262.962738 
	C964.411743,293.844788 941.859497,308.395935 915.228088,307.413055 
	C909.010010,307.183594 902.535034,305.940277 896.742371,303.702881 
	C881.336060,297.752228 872.336365,286.266235 871.992310,269.510925 
	C871.506531,245.859955 871.810547,222.192719 871.795776,198.532425 
	C871.795410,197.889236 872.011963,197.245911 872.240173,195.973846 
	C879.184814,195.973846 886.131226,195.875397 893.066528,196.108704 
	C893.859863,196.135391 894.590759,198.018082 895.353271,199.497025 
z" data-index="10" style="opacity: 1;"></path>
<path fill="#D3D4D3" opacity="1.000000" stroke="none" d="
M763.949585,266.725525 
	C771.624939,244.471573 779.262634,222.621597 786.645935,200.686020 
	C787.855530,197.092300 789.474792,195.679703 793.338440,195.850510 
	C800.485352,196.166473 807.664856,195.754654 814.810486,196.084595 
	C816.440308,196.159851 818.937073,197.687607 819.434143,199.107300 
	C831.648315,233.991959 843.647156,268.952057 855.670837,303.903320 
	C855.769287,304.189606 855.683044,304.539398 855.683044,305.770508 
	C848.012451,305.770508 840.309265,305.877838 832.617981,305.623566 
	C831.738281,305.594452 830.581421,303.663086 830.140686,302.407501 
	C828.100708,296.595825 826.151978,290.745514 824.412476,284.837860 
	C823.597412,282.070099 822.421814,280.740234 819.243713,280.800842 
	C808.589539,281.003998 797.925537,280.743713 787.275208,281.029541 
	C785.716492,281.071411 783.405518,282.800873 782.823608,284.289337 
	C780.523804,290.171936 778.670227,296.238678 776.867737,302.301514 
	C776.073669,304.972351 774.730042,305.998077 771.886719,305.917542 
	C765.094604,305.725189 758.293396,305.855469 750.458923,305.855469 
	C755.093994,292.418335 759.460510,279.759644 763.949585,266.725525 
M806.840820,230.572540 
	C805.868835,227.803574 804.896790,225.034622 803.924744,222.265656 
	C803.547668,222.249939 803.170532,222.234207 802.793457,222.218491 
	C798.483093,235.458328 794.172791,248.698181 789.779480,262.192841 
	C799.301697,262.192841 807.920288,262.192841 817.059082,262.192841 
	C813.592285,251.478973 810.330933,241.400177 806.840820,230.572540 
z" data-index="11" style="opacity: 1;"></path>
<path fill="#D2D2D2" opacity="1.000000" stroke="none" d="
M1235.228027,285.999390 
	C1235.228149,255.872665 1235.228149,226.245773 1235.228149,196.273895 
	C1260.108765,196.273895 1284.495850,196.273895 1309.494995,196.273895 
	C1309.494995,201.958847 1309.707031,207.424271 1309.297485,212.842743 
	C1309.224731,213.806458 1306.580200,215.300186 1305.106079,215.320862 
	C1291.446411,215.512497 1277.780396,215.586029 1264.122314,215.344650 
	C1259.919922,215.270370 1258.541382,216.589172 1258.819458,220.730896 
	C1259.142212,225.541000 1259.162231,230.408722 1258.816040,235.215591 
	C1258.495972,239.659760 1259.710205,241.313797 1264.524780,241.170776 
	C1276.676758,240.809769 1288.849243,241.187057 1301.008057,240.972092 
	C1304.813110,240.904816 1306.095703,242.188736 1305.761475,245.861710 
	C1305.330200,250.599762 1306.865479,256.884277 1304.379639,259.653839 
	C1302.224243,262.055176 1295.645630,260.601257 1291.020142,260.646088 
	C1282.190430,260.731598 1273.346436,260.956085 1264.533936,260.557526 
	C1259.722656,260.339935 1258.484619,262.069580 1258.816406,266.519714 
	C1259.162231,271.159119 1259.194824,275.869293 1258.810303,280.502533 
	C1258.420776,285.196960 1259.778320,286.862274 1264.774414,286.729980 
	C1278.094116,286.377197 1291.431030,286.728424 1304.757324,286.535706 
	C1308.546265,286.480927 1310.334961,287.350311 1309.915283,291.502045 
	C1309.581909,294.800659 1309.625610,298.178741 1309.907104,301.487030 
	C1310.219116,305.153961 1308.625732,305.944153 1305.279907,305.926483 
	C1283.454224,305.811127 1261.626831,305.775909 1239.802002,305.951538 
	C1235.877930,305.983124 1234.966064,304.562592 1235.162231,300.991333 
	C1235.427002,296.173950 1235.228027,291.331116 1235.228027,285.999390 
z" data-index="12" style="opacity: 1;"></path>
<path fill="#D2D2D2" opacity="1.000000" stroke="none" d="
M564.046753,261.000000 
	C564.046753,239.201279 564.046753,217.902557 564.046753,196.266907 
	C588.500488,196.266907 612.417419,196.266907 637.120728,196.266907 
	C637.120728,201.904694 637.323853,207.508041 636.914429,213.066284 
	C636.848694,213.959091 634.057617,215.309540 632.510681,215.331253 
	C619.513489,215.513626 606.508301,215.625687 593.515137,215.333496 
	C588.904297,215.229813 587.277344,216.565308 587.656555,221.222443 
	C588.047546,226.023865 587.978210,230.896851 587.671265,235.710526 
	C587.412292,239.772400 588.629944,241.253082 592.916504,241.144638 
	C604.075867,240.862274 615.247070,241.050201 626.413574,241.050507 
	C628.060852,241.050537 629.708130,241.050507 632.276611,241.050507 
	C632.276611,247.128860 632.440308,252.874481 632.084412,258.587738 
	C632.036011,259.365051 629.397461,260.559021 627.944458,260.579437 
	C616.280334,260.743652 604.608887,260.844482 592.948425,260.582001 
	C588.710754,260.486603 587.574280,261.917145 587.658325,265.997498 
	C587.898438,277.659027 587.626160,289.330536 587.813110,300.994019 
	C587.870056,304.546906 587.096313,306.203522 583.148621,305.943390 
	C578.336243,305.626251 573.472290,305.634766 568.658447,305.940613 
	C564.742554,306.189392 563.923889,304.583679 563.973938,300.998413 
	C564.158020,287.834503 564.046875,274.666473 564.046753,261.000000 
z" data-index="13"></path>
<path fill="#D3D3D3" opacity="1.000000" stroke="none" d="
M1677.052979,258.116638 
	C1665.452026,237.538376 1654.025391,217.285141 1642.003540,195.976685 
	C1650.936646,195.976685 1658.828491,195.813782 1666.699707,196.143509 
	C1667.952148,196.195999 1669.468018,198.270370 1670.258667,199.735565 
	C1677.135742,212.480820 1683.870728,225.302765 1690.661743,238.094498 
	C1691.432739,239.546448 1692.289062,240.952942 1693.608765,243.259079 
	C1694.888428,241.285294 1695.907715,239.941315 1696.689819,238.471191 
	C1703.491455,225.685104 1710.356079,212.930237 1716.946899,200.035660 
	C1718.544189,196.910721 1720.429321,195.730774 1723.906250,195.862549 
	C1730.700073,196.119995 1737.510254,195.938110 1745.270874,195.938110 
	C1744.119507,198.206131 1743.390991,199.785446 1742.540161,201.295883 
	C1731.020752,221.746109 1719.395630,242.137802 1708.052979,262.685425 
	C1706.455078,265.580048 1705.589966,269.201813 1705.467651,272.526733 
	C1705.125488,281.837097 1705.350098,291.168304 1705.350952,300.491272 
	C1705.351074,302.107574 1705.350952,303.723877 1705.350952,305.847198 
	C1698.111206,305.847198 1691.477417,306.020721 1684.872559,305.662079 
	C1683.870239,305.607635 1682.240356,303.105042 1682.197144,301.695099 
	C1681.942383,293.378845 1681.772339,285.036652 1682.164673,276.731140 
	C1682.483643,269.979980 1681.378906,263.864746 1677.052979,258.116638 
z" data-index="14"></path>
<path fill="#D3D4D3" opacity="1.000000" stroke="none" d="
M1528.168701,215.258484 
	C1518.910278,215.381287 1510.075562,215.589432 1501.253296,215.344406 
	C1497.210083,215.232101 1496.198486,216.685837 1496.219604,220.542084 
	C1496.363647,246.865341 1496.294678,273.189789 1496.294434,299.513824 
	C1496.294312,301.321594 1496.294434,303.129333 1496.294434,305.397583 
	C1488.554199,305.397583 1481.193359,305.397583 1473.254272,305.397583 
	C1473.169556,303.474548 1473.012207,301.550262 1473.010986,299.625916 
	C1472.994629,273.301849 1472.913086,246.977234 1473.088013,220.654343 
	C1473.115967,216.444229 1471.798584,215.195160 1467.690674,215.344131 
	C1459.870361,215.627655 1452.028076,215.272659 1444.203857,215.494049 
	C1440.615479,215.595581 1439.013916,214.682358 1439.261108,210.781174 
	C1439.562622,206.022354 1439.332764,201.229828 1439.332764,196.205948 
	C1441.526123,196.092026 1442.994263,195.949997 1444.462280,195.949249 
	C1471.119507,195.935867 1497.777344,196.015305 1524.433594,195.858017 
	C1528.446777,195.834351 1530.341675,196.749908 1529.815674,201.077515 
	C1529.247681,205.751556 1528.990112,210.463333 1528.168701,215.258484 
z" data-index="15" style="opacity: 1;"></path>

<path fill="#0C1E24" opacity="1.000000" stroke="none" d="
M1572.500244,248.019318 
	C1571.527954,247.211456 1570.568726,246.461899 1570.561035,245.702682 
	C1570.460327,235.770889 1570.494141,225.837753 1570.494141,214.419159 
	C1579.340698,215.195419 1587.794922,215.139420 1595.861572,216.879944 
	C1603.237549,218.471466 1606.602661,225.836945 1605.563965,234.348450 
	C1604.593384,242.302383 1599.845947,247.109344 1591.376953,247.802307 
	C1585.270020,248.301987 1579.098389,248.011276 1572.500244,248.019318 
z" data-index="17" style="opacity: 1; visibility: hidden;"></path>

<path fill="#112228" opacity="1.000000" stroke="none" d="
M806.955200,230.946960 
	C810.330933,241.400177 813.592285,251.478973 817.059082,262.192841 
	C807.920288,262.192841 799.301697,262.192841 789.779480,262.192841 
	C794.172791,248.698181 798.483093,235.458328 802.793457,222.218491 
	C803.170532,222.234207 803.547668,222.249939 803.924744,222.265656 
	C804.896790,225.034622 805.868835,227.803574 806.955200,230.946960 
z" data-index="19" style="opacity: 1; visibility: hidden;"></path>
</svg>